<svg width="22" height="22" viewBox="0 0 22 22" fill="none" xmlns="http://www.w3.org/2000/svg">
<path d="M3.025 0C2.22272 0 1.4533 0.318704 0.886002 0.886002C0.318704 1.4533 0 2.22272 0 3.025V16.775C0 17.5773 0.318704 18.3467 0.886002 18.914C1.4533 19.4813 2.22272 19.8 3.025 19.8H9.9242C9.59451 19.2857 9.33239 18.7312 9.1443 18.15H3.025C2.266 18.15 1.65 17.534 1.65 16.775V3.025C1.65 2.266 2.266 1.65 3.025 1.65H16.775C17.534 1.65 18.15 2.266 18.15 3.025V9.1443C18.7312 9.33239 19.2857 9.59451 19.8 9.9242V3.025C19.8 2.22272 19.4813 1.4533 18.914 0.886002C18.3467 0.318704 17.5773 0 16.775 0H3.025Z" fill="#ACB5BD"/>
<path d="M16.4528 8.81755C16.5001 8.69264 16.5162 8.55811 16.4999 8.42555C16.4836 8.29299 16.4354 8.16638 16.3593 8.05663C16.2832 7.94687 16.1816 7.85725 16.0631 7.7955C15.9447 7.73375 15.8131 7.70172 15.6795 7.70215H10.1751C9.95629 7.70215 9.74645 7.78907 9.59173 7.94379C9.43702 8.09851 9.3501 8.30835 9.3501 8.52715C9.3501 8.74596 9.43702 8.9558 9.59173 9.11052C9.74645 9.26523 9.95629 9.35215 10.1751 9.35215H13.1913C14.2216 8.92089 15.3388 8.73777 16.4528 8.81755Z" fill="#ACB5BD"/>
<path d="M5.77505 6.05212C5.11864 6.05212 4.48911 6.31288 4.02496 6.77703C3.56081 7.24119 3.30005 7.87071 3.30005 8.52712C3.30005 9.18353 3.56081 9.81306 4.02496 10.2772C4.48911 10.7414 5.11864 11.0021 5.77505 11.0021C6.43146 11.0021 7.06099 10.7414 7.52514 10.2772C7.98929 9.81306 8.25005 9.18353 8.25005 8.52712C8.25005 7.87071 7.98929 7.24119 7.52514 6.77703C7.06099 6.31288 6.43146 6.05212 5.77505 6.05212ZM4.95005 8.52712C4.95005 8.30832 5.03697 8.09848 5.19169 7.94376C5.3464 7.78904 5.55625 7.70212 5.77505 7.70212C5.99385 7.70212 6.20369 7.78904 6.35841 7.94376C6.51313 8.09848 6.60005 8.30832 6.60005 8.52712C6.60005 8.74593 6.51313 8.95577 6.35841 9.11049C6.20369 9.2652 5.99385 9.35212 5.77505 9.35212C5.55625 9.35212 5.3464 9.2652 5.19169 9.11049C5.03697 8.95577 4.95005 8.74593 4.95005 8.52712Z" fill="#ACB5BD"/>
<path d="M3.30005 14.575C3.30005 14.25 3.36407 13.9281 3.48845 13.6278C3.61283 13.3276 3.79513 13.0547 4.02496 12.8249C4.25478 12.5951 4.52763 12.4128 4.82791 12.2884C5.12819 12.164 5.45003 12.1 5.77505 12.1C6.10007 12.1 6.42191 12.164 6.72219 12.2884C7.02247 12.4128 7.29531 12.5951 7.52514 12.8249C7.75496 13.0547 7.93727 13.3276 8.06165 13.6278C8.18603 13.9281 8.25005 14.25 8.25005 14.575C8.25005 15.2314 7.98929 15.8609 7.52514 16.3251C7.06099 16.7892 6.43146 17.05 5.77505 17.05C5.11864 17.05 4.48911 16.7892 4.02496 16.3251C3.56081 15.8609 3.30005 15.2314 3.30005 14.575ZM5.77505 13.75C5.55625 13.75 5.3464 13.8369 5.19169 13.9916C5.03697 14.1463 4.95005 14.3562 4.95005 14.575C4.95005 14.7938 5.03697 15.0036 5.19169 15.1583C5.3464 15.3131 5.55625 15.4 5.77505 15.4C5.99385 15.4 6.20369 15.3131 6.35841 15.1583C6.51313 15.0036 6.60005 14.7938 6.60005 14.575C6.60005 14.3562 6.51313 14.1463 6.35841 13.9916C6.20369 13.8369 5.99385 13.75 5.77505 13.75Z" fill="#ACB5BD"/>
<path d="M15.6794 4.95005H4.12944C3.91064 4.95005 3.7008 4.86313 3.54608 4.70841C3.39136 4.55369 3.30444 4.34385 3.30444 4.12505C3.30444 3.90625 3.39136 3.6964 3.54608 3.54169C3.7008 3.38697 3.91064 3.30005 4.12944 3.30005H15.6794C15.8982 3.30005 16.1081 3.38697 16.2628 3.54169C16.4175 3.6964 16.5044 3.90625 16.5044 4.12505C16.5044 4.34385 16.4175 4.55369 16.2628 4.70841C16.1081 4.86313 15.8982 4.95005 15.6794 4.95005Z" fill="#ACB5BD"/>
<path d="M21.9999 15.95C21.9999 14.3455 21.3625 12.8066 20.2279 11.672C19.0933 10.5374 17.5545 9.90002 15.9499 9.90002C14.3453 9.90002 12.8065 10.5374 11.6719 11.672C10.5373 12.8066 9.8999 14.3455 9.8999 15.95C9.8999 17.5546 10.5373 19.0934 11.6719 20.228C12.8065 21.3626 14.3453 22 15.9499 22C17.5545 22 19.0933 21.3626 20.2279 20.228C21.3625 19.0934 21.9999 17.5546 21.9999 15.95ZM16.501 19.2533C16.501 19.3992 16.4431 19.5391 16.3399 19.6422C16.2368 19.7454 16.0969 19.8033 15.951 19.8033C15.8051 19.8033 15.6652 19.7454 15.5621 19.6422C15.4589 19.5391 15.401 19.3992 15.401 19.2533V16.5H12.6455C12.4996 16.5 12.3597 16.4421 12.2566 16.3389C12.1534 16.2358 12.0955 16.0959 12.0955 15.95C12.0955 15.8042 12.1534 15.6643 12.2566 15.5611C12.3597 15.458 12.4996 15.4 12.6455 15.4H15.3999V12.65C15.3999 12.5042 15.4578 12.3643 15.561 12.2611C15.6641 12.158 15.804 12.1 15.9499 12.1C16.0958 12.1 16.2357 12.158 16.3388 12.2611C16.442 12.3643 16.4999 12.5042 16.4999 12.65V15.4H19.2532C19.3991 15.4 19.539 15.458 19.6421 15.5611C19.7453 15.6643 19.8032 15.8042 19.8032 15.95C19.8032 16.0959 19.7453 16.2358 19.6421 16.3389C19.539 16.4421 19.3991 16.5 19.2532 16.5H16.501V19.2533Z" fill="#ACB5BD"/>
</svg>
