<svg width="22" height="22" viewBox="0 0 22 22" fill="none" xmlns="http://www.w3.org/2000/svg">
<path d="M1.94531 11.2222C1.42323 11.2222 1 10.799 1 10.2769V1.94531C1 1.42323 1.42323 1 1.94531 1H7.83247C8.35455 1 8.77778 1.42323 8.77778 1.94531V10.2769C8.77778 10.799 8.35455 11.2222 7.83246 11.2222H1.94531ZM1.94531 21C1.42323 21 1 20.5768 1 20.0547V16.612C1 16.0899 1.42323 15.6667 1.94531 15.6667H7.83247C8.35455 15.6667 8.77778 16.0899 8.77778 16.612V20.0547C8.77778 20.5768 8.35455 21 7.83246 21H1.94531ZM14.1675 21C13.6455 21 13.2222 20.5768 13.2222 20.0547V11.7231C13.2222 11.201 13.6455 10.7778 14.1675 10.7778H20.0547C20.5768 10.7778 21 11.201 21 11.7231V20.0547C21 20.5768 20.5768 21 20.0547 21H14.1675ZM13.2222 1.94531C13.2222 1.42323 13.6455 1 14.1675 1H20.0547C20.5768 1 21 1.42323 21 1.94531V5.38802C21 5.9101 20.5768 6.33333 20.0547 6.33333H14.1675C13.6455 6.33333 13.2222 5.9101 13.2222 5.38802V1.94531Z" stroke="#F8F9FA" stroke-width="2"/>
</svg>
