<svg width="22" height="25" viewBox="0 0 22 25" fill="none" xmlns="http://www.w3.org/2000/svg">
<path d="M2.43285 0H13.3807C14.0259 0 14.6447 0.256317 15.101 0.712565C15.5572 1.16881 15.8135 1.78762 15.8135 2.43285V3.64927C15.8135 3.97189 15.6854 4.28129 15.4572 4.50942C15.2291 4.73754 14.9197 4.8657 14.5971 4.8657C14.2745 4.8657 13.9651 4.73754 13.737 4.50942C13.5088 4.28129 13.3807 3.97189 13.3807 3.64927V2.43285H2.43285V21.8956H13.3807V20.6792C13.3807 20.3566 13.5088 20.0472 13.737 19.8191C13.9651 19.591 14.2745 19.4628 14.5971 19.4628C14.9197 19.4628 15.2291 19.591 15.4572 19.8191C15.6854 20.0472 15.8135 20.3566 15.8135 20.6792V21.8956C15.8135 22.5409 15.5572 23.1597 15.101 23.6159C14.6447 24.0722 14.0259 24.3285 13.3807 24.3285H2.43285C1.78762 24.3285 1.16881 24.0722 0.712565 23.6159C0.256317 23.1597 0 22.5409 0 21.8956V2.43285C0 1.78762 0.256317 1.16881 0.712565 0.712565C1.16881 0.256317 1.78762 0 2.43285 0Z" fill="#F03D3E"/>
<path d="M15.5641 17.3888C16.0385 17.8632 16.8048 17.8632 17.2792 17.3888L21.6438 13.0243C21.8718 12.7961 21.9999 12.4868 21.9999 12.1642C21.9999 11.8417 21.8718 11.5324 21.6438 11.3042L17.2792 6.9397C17.048 6.73071 16.7453 6.61856 16.4337 6.62642C16.1221 6.63429 15.8255 6.76157 15.6051 6.98196C15.3847 7.20235 15.2574 7.499 15.2496 7.81058C15.2417 8.12216 15.3539 8.42485 15.5628 8.65608L17.8449 10.9478H7.29846C6.97584 10.9478 6.66644 11.076 6.43831 11.3041C6.21019 11.5322 6.08203 11.8416 6.08203 12.1642C6.08203 12.4869 6.21019 12.7963 6.43831 13.0244C6.66644 13.2525 6.97584 13.3807 7.29846 13.3807H17.8449L15.5628 15.6724C15.3358 15.9004 15.2084 16.2091 15.2086 16.5309C15.2088 16.8526 15.3367 17.1611 15.5641 17.3888Z" fill="#F03D3E"/>
</svg>
