<svg width="108" height="108" viewBox="0 0 108 108" fill="none" xmlns="http://www.w3.org/2000/svg">
<path d="M94.5 72.0001V36.0001C94.4984 34.4218 94.0818 32.8718 93.2919 31.5053C92.5021 30.1389 91.3668 29.0042 90 28.2151L58.5 10.2151C57.1318 9.42519 55.5798 9.00934 54 9.00934C52.4202 9.00934 50.8682 9.42519 49.5 10.2151L18 28.2151C16.6332 29.0042 15.4979 30.1389 14.7081 31.5053C13.9182 32.8718 13.5016 34.4218 13.5 36.0001V72.0001C13.5016 73.5784 13.9182 75.1285 14.7081 76.4949C15.4979 77.8613 16.6332 78.996 18 79.7851L49.5 97.7851C50.8682 98.575 52.4202 98.9909 54 98.9909C55.5798 98.9909 57.1318 98.575 58.5 97.7851L90 79.7851C91.3668 78.996 92.5021 77.8613 93.2919 76.4949C94.0818 75.1285 94.4984 73.5784 94.5 72.0001Z" stroke="#4263EB" stroke-width="4" stroke-linecap="round" stroke-linejoin="round"/>
<path d="M14.715 31.3201L54 54.0451L93.285 31.3201" stroke="#4263EB" stroke-width="4" stroke-linecap="round" stroke-linejoin="round"/>
<path d="M54 99.36V54" stroke="#4263EB" stroke-width="4" stroke-linecap="round" stroke-linejoin="round"/>
<path d="M82.1667 65.1566V66C82.1656 67.9767 81.5255 69.9001 80.3419 71.4833C79.1583 73.0665 77.4947 74.2248 75.5991 74.7852C73.7035 75.3457 71.6775 75.2784 69.8233 74.5933C67.9691 73.9083 66.3859 72.6422 65.3101 70.984C64.2342 69.3257 63.7232 67.364 63.8532 65.3916C63.9833 63.4192 64.7474 61.5416 66.0318 60.039C67.3161 58.5363 69.0517 57.4891 70.9799 57.0534C72.908 56.6178 74.9253 56.8171 76.7308 57.6216" stroke="#4263EB" stroke-linecap="round" stroke-linejoin="round"/>
<path d="M82.1667 58.6667L73 67.8425L70.25 65.0925" stroke="#4263EB" stroke-linecap="round" stroke-linejoin="round"/>
<path d="M41.1667 63.1566V64C41.1656 65.9767 40.5255 67.9001 39.3419 69.4833C38.1583 71.0665 36.4947 72.2248 34.5991 72.7852C32.7035 73.3457 30.6775 73.2784 28.8233 72.5933C26.9691 71.9083 25.3859 70.6422 24.3101 68.984C23.2342 67.3257 22.7232 65.364 22.8532 63.3916C22.9833 61.4192 23.7474 59.5416 25.0318 58.039C26.3161 56.5363 28.0517 55.4891 29.9799 55.0534C31.908 54.6178 33.9253 54.8171 35.7308 55.6216" stroke="#4263EB" stroke-linecap="round" stroke-linejoin="round"/>
<path d="M41.1667 56.6667L32 65.8425L29.25 63.0925" stroke="#4263EB" stroke-linecap="round" stroke-linejoin="round"/>
<path d="M63.1667 30.1566V31C63.1656 32.9767 62.5255 34.9001 61.3419 36.4833C60.1583 38.0665 58.4947 39.2248 56.5991 39.7852C54.7035 40.3457 52.6775 40.2784 50.8233 39.5933C48.9691 38.9083 47.3859 37.6422 46.3101 35.984C45.2342 34.3257 44.7232 32.364 44.8532 30.3916C44.9833 28.4192 45.7474 26.5416 47.0318 25.039C48.3161 23.5363 50.0517 22.4891 51.9799 22.0534C53.908 21.6178 55.9253 21.8171 57.7308 22.6216" stroke="#4263EB" stroke-linecap="round" stroke-linejoin="round"/>
<path d="M63.1667 23.6667L54 32.8425L51.25 30.0925" stroke="#4263EB" stroke-linecap="round" stroke-linejoin="round"/>
</svg>
