<svg width="42" height="42" viewBox="0 0 42 42" fill="none" xmlns="http://www.w3.org/2000/svg">
<circle cx="21" cy="21" r="21" fill="#EEFBF8"/>
<path d="M9 21C9 14.373 14.373 9 21 9C27.627 9 33 14.373 33 21C33 27.627 27.627 33 21 33C14.376 32.992 9.008 27.624 9 21.001V21ZM11.4 21C11.4 26.302 15.698 30.6 21 30.6C26.302 30.6 30.6 26.302 30.6 21C30.6 15.698 26.302 11.4 21 11.4C15.701 11.406 11.406 15.701 11.4 20.999V21ZM15.4 21C15.4 19.5148 15.99 18.0904 17.0402 17.0402C18.0904 15.99 19.5148 15.4 21 15.4C22.4852 15.4 23.9096 15.99 24.9598 17.0402C26.01 18.0904 26.6 19.5148 26.6 21C26.6 22.4852 26.01 23.9096 24.9598 24.9598C23.9096 26.01 22.4852 26.6 21 26.6C19.5148 26.6 18.0904 26.01 17.0402 24.9598C15.99 23.9096 15.4 22.4852 15.4 21Z" fill="#2BBB94"/>
</svg>
