<svg width="22" height="23" viewBox="0 0 22 23" fill="none" xmlns="http://www.w3.org/2000/svg">
<path d="M11.6364 5.03841H10.3676C10.2515 5.03841 10.1565 5.13338 10.1565 5.24944V12.5116C10.1565 12.5802 10.1882 12.6435 10.2436 12.6831L14.6041 15.867C14.699 15.9356 14.8309 15.9172 14.8995 15.8222L15.6539 14.7934C15.7252 14.6958 15.7041 14.5639 15.6091 14.498L11.8474 11.7783V5.24944C11.8474 5.13338 11.7525 5.03841 11.6364 5.03841ZM17.4345 7.02212L21.5708 8.03244C21.7027 8.06409 21.8319 7.96385 21.8319 7.82932L21.853 3.5691C21.853 3.39236 21.6499 3.29212 21.5127 3.40291L17.3554 6.65018C17.324 6.67448 17.3001 6.70716 17.2864 6.74446C17.2727 6.78176 17.2698 6.82216 17.2781 6.86101C17.2864 6.89987 17.3054 6.9356 17.3331 6.9641C17.3608 6.9926 17.3959 7.01271 17.4345 7.02212ZM21.8583 14.9649L20.3626 14.4505C20.3105 14.4326 20.2534 14.4358 20.2036 14.4595C20.1538 14.4832 20.1153 14.5254 20.0962 14.5771C20.0461 14.7116 19.9933 14.8435 19.9379 14.9754C19.4684 16.086 18.7957 17.0857 17.9357 17.9431C17.0853 18.7961 16.0775 19.4761 14.9681 19.9452C13.8188 20.4311 12.5834 20.6805 11.3357 20.6786C10.0748 20.6786 8.85341 20.4333 7.70328 19.9452C6.59388 19.4761 5.58604 18.7961 4.73563 17.9431C3.87831 17.0857 3.20565 16.086 2.73346 14.9754C2.25024 13.8255 2.00267 12.5903 2.0054 11.343C2.0054 10.0821 2.25072 8.85811 2.73874 7.70798C3.20828 6.59742 3.88095 5.59765 4.74091 4.74033C5.59132 3.88728 6.59916 3.20732 7.70856 2.73815C8.85341 2.25014 10.0774 2.00481 11.3383 2.00481C12.5992 2.00481 13.8206 2.25014 14.9707 2.73815C16.0801 3.20732 17.088 3.88728 17.9384 4.74033C18.2074 5.01203 18.4607 5.29429 18.6928 5.59237L20.2703 4.35783C18.1943 1.70409 14.9628 -0.00263486 11.333 3.05349e-06C5.01261 0.00264096 -0.0627239 5.13602 0.000585912 11.4591C0.0638958 17.6714 5.11549 22.686 11.3383 22.686C16.2316 22.686 20.3995 19.5838 21.9876 15.2392C22.0271 15.1284 21.9691 15.0044 21.8583 14.9649Z" fill="#ACB5BD"/>
</svg>
